<?xml version="1.0" encoding="UTF-8" standalone="no"?>
<!DOCTYPE svg PUBLIC "-//W3C//DTD SVG 1.1//EN"
 "http://www.w3.org/Graphics/SVG/1.1/DTD/svg11.dtd">
<!-- Generated by graphviz version 2.42.3 (20191010.1750)
 -->
<!-- Title: G Pages: 1 -->
<svg width="1103pt" height="819pt"
 viewBox="0.00 0.00 1103.44 819.39" xmlns="http://www.w3.org/2000/svg" xmlns:xlink="http://www.w3.org/1999/xlink">
<g id="graph0" class="graph" transform="scale(1 1) rotate(0) translate(4 815.39)">
<title>G</title><style>.edge>path:hover{stroke-width:8}</style>
<polygon fill="white" stroke="transparent" points="-4,4 -4,-815.39 1099.44,-815.39 1099.44,4 -4,4"/>
<g id="clust3" class="cluster">
<title>cluster_scipy</title><style>.edge>path:hover{stroke-width:8}</style>
<polygon fill="none" stroke="black" points="703,-547.59 703,-621.59 869,-621.59 869,-547.59 703,-547.59"/>
<text text-anchor="middle" x="786" y="-606.39" font-family="Times,serif" font-size="14.00">scipy</text>
</g>
<g id="clust1" class="cluster">
<title>cluster_matplotlib</title><style>.edge>path:hover{stroke-width:8}</style>
<polygon fill="none" stroke="black" points="453,-473.79 453,-623.39 557,-623.39 557,-473.79 453,-473.79"/>
<text text-anchor="middle" x="505" y="-608.19" font-family="Times,serif" font-size="14.00">matplotlib</text>
</g>
<g id="clust2" class="cluster">
<title>cluster_qrsalg</title><style>.edge>path:hover{stroke-width:8}</style>
<polygon fill="none" stroke="black" points="252,-64 252,-364.79 653,-364.79 653,-64 252,-64"/>
<text text-anchor="middle" x="452.5" y="-349.59" font-family="Times,serif" font-size="14.00">qrsalg</text>
</g>
<!-- matplotlib -->
<g id="node1" class="node">
<title>matplotlib</title><style>.edge>path:hover{stroke-width:8}</style>
<ellipse fill="#14b8b8" stroke="black" cx="505" cy="-499.79" rx="33.89" ry="18"/>
<text text-anchor="middle" x="505" y="-496.79" font-family="Helvetica,sans-Serif" font-size="10.00" fill="#000000">matplotlib</text>
</g>
<!-- qrsalg_ECGLAB_QRS_Mod -->
<g id="node4" class="node">
<title>qrsalg_ECGLAB_QRS_Mod</title><style>.edge>path:hover{stroke-width:8}</style>
<ellipse fill="#4c1782" stroke="black" cx="525" cy="-239.4" rx="76.89" ry="19.6"/>
<text text-anchor="middle" x="525" y="-241.4" font-family="Helvetica,sans-Serif" font-size="10.00" fill="#ffffff">qrsalg.</text>
<text text-anchor="middle" x="525" y="-231.4" font-family="Helvetica,sans-Serif" font-size="10.00" fill="#ffffff">ECGLAB_QRS_Mod</text>
</g>
<!-- matplotlib&#45;&gt;qrsalg_ECGLAB_QRS_Mod -->
<g id="edge21" class="edge">
<title>matplotlib&#45;&gt;qrsalg_ECGLAB_QRS_Mod</title><style>.edge>path:hover{stroke-width:8}</style>
<path fill="none" stroke="black" d="M490.62,-473.8C478.41,-450.49 461.94,-413.59 456.04,-374.81"/>
<polygon fill="#000000" stroke="black" points="459.5,-374.27 454.76,-364.79 452.55,-375.15 459.5,-374.27"/>
</g>
<!-- mlib -->
<g id="node24" class="node">
<title>mlib</title><style>.edge>path:hover{stroke-width:8}</style>
<polygon fill="#0698ef" stroke="black" points="704,-408.79 701,-412.79 680,-412.79 677,-408.79 650,-408.79 650,-372.79 704,-372.79 704,-408.79"/>
<text text-anchor="middle" x="677" y="-387.79" font-family="Helvetica,sans-Serif" font-size="10.00" fill="#ffffff">mlib</text>
</g>
<!-- matplotlib&#45;&gt;mlib -->
<g id="edge20" class="edge">
<title>matplotlib&#45;&gt;mlib</title><style>.edge>path:hover{stroke-width:8}</style>
<path fill="none" stroke="black" d="M545.18,-473.8C574.14,-455.78 612.9,-431.67 640.88,-414.26"/>
<polygon fill="#000000" stroke="black" points="643.14,-416.98 649.78,-408.73 639.44,-411.04 643.14,-416.98"/>
</g>
<!-- matplotlib_pyplot -->
<g id="node2" class="node">
<title>matplotlib_pyplot</title><style>.edge>path:hover{stroke-width:8}</style>
<ellipse fill="#21bfbf" stroke="black" cx="505" cy="-573.59" rx="43.58" ry="19.6"/>
<text text-anchor="middle" x="505" y="-575.59" font-family="Helvetica,sans-Serif" font-size="10.00" fill="#000000">matplotlib.</text>
<text text-anchor="middle" x="505" y="-565.59" font-family="Helvetica,sans-Serif" font-size="10.00" fill="#000000">pyplot</text>
</g>
<!-- matplotlib_pyplot&#45;&gt;matplotlib -->
<g id="edge22" class="edge">
<title>matplotlib_pyplot&#45;&gt;matplotlib</title><style>.edge>path:hover{stroke-width:8}</style>
<path fill="none" stroke="black" d="M505,-553.73C505,-545.81 505,-536.46 505,-527.83"/>
<polygon fill="#000000" stroke="black" points="508.5,-527.81 505,-517.81 501.5,-527.82 508.5,-527.81"/>
</g>
<!-- matplotlib_pyplot&#45;&gt;mlib -->
<g id="edge23" class="edge">
<title>matplotlib_pyplot&#45;&gt;mlib</title><style>.edge>path:hover{stroke-width:8}</style>
<path fill="none" stroke="black" d="M557,-517.93C589.24,-484.04 629.09,-442.16 653.77,-416.21"/>
<polygon fill="#000000" stroke="black" points="656.45,-418.47 660.81,-408.81 651.38,-413.65 656.45,-418.47"/>
</g>
<!-- qrsalg -->
<g id="node3" class="node">
<title>qrsalg</title><style>.edge>path:hover{stroke-width:8}</style>
<ellipse fill="#6605c7" stroke="black" cx="316" cy="-90" rx="27" ry="18"/>
<text text-anchor="middle" x="316" y="-87" font-family="Helvetica,sans-Serif" font-size="10.00" fill="#ffffff">qrsalg</text>
</g>
<!-- hep -->
<g id="node12" class="node">
<title>hep</title><style>.edge>path:hover{stroke-width:8}</style>
<ellipse fill="#317241" stroke="black" cx="232" cy="-18" rx="27" ry="18"/>
<text text-anchor="middle" x="232" y="-15" font-family="Helvetica,sans-Serif" font-size="10.00" fill="#ffffff">hep</text>
</g>
<!-- qrsalg&#45;&gt;hep -->
<g id="edge45" class="edge">
<title>qrsalg&#45;&gt;hep</title><style>.edge>path:hover{stroke-width:8}</style>
<path fill="none" stroke="black" d="M286,-64C276.14,-55.79 265.32,-46.77 255.97,-38.97"/>
<polygon fill="#000000" stroke="black" points="258.07,-36.17 248.15,-32.46 253.59,-41.55 258.07,-36.17"/>
</g>
<!-- HEP_Params -->
<g id="node13" class="node">
<title>HEP_Params</title><style>.edge>path:hover{stroke-width:8}</style>
<ellipse fill="#a13535" stroke="black" cx="148" cy="-649.39" rx="44.42" ry="18"/>
<text text-anchor="middle" x="148" y="-646.39" font-family="Helvetica,sans-Serif" font-size="10.00" fill="#ffffff">HEP_Params</text>
</g>
<!-- qrsalg&#45;&gt;HEP_Params -->
<g id="edge43" class="edge">
<title>qrsalg&#45;&gt;HEP_Params</title><style>.edge>path:hover{stroke-width:8}</style>
<path fill="none" stroke="black" d="M653,-123.33C777.57,-144.91 889,-180.42 889,-238.4 889,-500.79 889,-500.79 889,-500.79 889,-555.74 913.66,-586.43 873,-623.39 871.45,-624.8 369.82,-641.2 201.98,-646.64"/>
<polygon fill="#000000" stroke="black" points="201.76,-643.15 191.88,-646.97 201.99,-650.15 201.76,-643.15"/>
</g>
<!-- HEP_lib -->
<g id="node14" class="node">
<title>HEP_lib</title><style>.edge>path:hover{stroke-width:8}</style>
<ellipse fill="#834520" stroke="black" cx="167" cy="-573.59" rx="30.19" ry="18"/>
<text text-anchor="middle" x="167" y="-570.59" font-family="Helvetica,sans-Serif" font-size="10.00" fill="#ffffff">HEP_lib</text>
</g>
<!-- qrsalg&#45;&gt;HEP_lib -->
<g id="edge44" class="edge">
<title>qrsalg&#45;&gt;HEP_lib</title><style>.edge>path:hover{stroke-width:8}</style>
<path fill="none" stroke="black" d="M252,-122.95C211.6,-148.11 167,-187.43 167,-238.4 167,-445.79 167,-445.79 167,-445.79 167,-480.08 167,-519.58 167,-545.26"/>
<polygon fill="#000000" stroke="black" points="163.5,-545.37 167,-555.37 170.5,-545.37 163.5,-545.37"/>
</g>
<!-- qrsalg_ecglab_original -->
<g id="node7" class="node">
<title>qrsalg_ecglab_original</title><style>.edge>path:hover{stroke-width:8}</style>
<ellipse fill="#6b4096" stroke="black" cx="468" cy="-163.8" rx="58.76" ry="19.6"/>
<text text-anchor="middle" x="468" y="-165.8" font-family="Helvetica,sans-Serif" font-size="10.00" fill="#ffffff">qrsalg.</text>
<text text-anchor="middle" x="468" y="-155.8" font-family="Helvetica,sans-Serif" font-size="10.00" fill="#ffffff">ecglab_original</text>
</g>
<!-- qrsalg_ECGLAB_QRS_Mod&#45;&gt;qrsalg_ecglab_original -->
<g id="edge48" class="edge">
<title>qrsalg_ECGLAB_QRS_Mod&#45;&gt;qrsalg_ecglab_original</title><style>.edge>path:hover{stroke-width:8}</style>
<path fill="none" stroke="black" d="M510.62,-219.83C503.88,-211.13 495.74,-200.62 488.39,-191.12"/>
<polygon fill="#000000" stroke="black" points="491.07,-188.87 482.18,-183.11 485.54,-193.16 491.07,-188.87"/>
</g>
<!-- qrsalg_ecglab_slow -->
<g id="node8" class="node">
<title>qrsalg_ecglab_slow</title><style>.edge>path:hover{stroke-width:8}</style>
<ellipse fill="#613091" stroke="black" cx="595" cy="-163.8" rx="50.46" ry="19.6"/>
<text text-anchor="middle" x="595" y="-165.8" font-family="Helvetica,sans-Serif" font-size="10.00" fill="#ffffff">qrsalg.</text>
<text text-anchor="middle" x="595" y="-155.8" font-family="Helvetica,sans-Serif" font-size="10.00" fill="#ffffff">ecglab_slow</text>
</g>
<!-- qrsalg_ECGLAB_QRS_Mod&#45;&gt;qrsalg_ecglab_slow -->
<g id="edge49" class="edge">
<title>qrsalg_ECGLAB_QRS_Mod&#45;&gt;qrsalg_ecglab_slow</title><style>.edge>path:hover{stroke-width:8}</style>
<path fill="none" stroke="black" d="M542.66,-219.83C551.23,-210.82 561.65,-199.87 570.93,-190.11"/>
<polygon fill="#000000" stroke="black" points="573.71,-192.26 578.07,-182.6 568.64,-187.44 573.71,-192.26"/>
</g>
<!-- qrsalg_ECGLAB_QRS_Mod&#45;&gt;hep -->
<g id="edge47" class="edge">
<title>qrsalg_ECGLAB_QRS_Mod&#45;&gt;hep</title><style>.edge>path:hover{stroke-width:8}</style>
<path fill="none" stroke="black" d="M252,-123.5C241.18,-95.54 236.21,-66.48 233.93,-46.12"/>
<polygon fill="#000000" stroke="black" points="237.41,-45.74 232.95,-36.13 230.44,-46.42 237.41,-45.74"/>
</g>
<!-- qrsalg_ECGLAB_QRS_Mod&#45;&gt;HEP_lib -->
<g id="edge46" class="edge">
<title>qrsalg_ECGLAB_QRS_Mod&#45;&gt;HEP_lib</title><style>.edge>path:hover{stroke-width:8}</style>
<path fill="none" stroke="black" d="M252,-287.9C239.23,-290.91 230.88,-293.43 229,-295.2 197.34,-324.85 205,-346.42 205,-389.79 205,-445.79 205,-445.79 205,-445.79 205,-482.11 190.52,-521.91 179.44,-547.05"/>
<polygon fill="#000000" stroke="black" points="176.21,-545.69 175.25,-556.24 182.58,-548.6 176.21,-545.69"/>
</g>
<!-- qrsalg_Manual -->
<g id="node5" class="node">
<title>qrsalg_Manual</title><style>.edge>path:hover{stroke-width:8}</style>
<ellipse fill="#6b4096" stroke="black" cx="346" cy="-163.8" rx="45.5" ry="18"/>
<text text-anchor="middle" x="346" y="-160.8" font-family="Helvetica,sans-Serif" font-size="10.00" fill="#ffffff">qrsalg.Manual</text>
</g>
<!-- qrsalg_Manual&#45;&gt;qrsalg -->
<g id="edge50" class="edge">
<title>qrsalg_Manual&#45;&gt;qrsalg</title><style>.edge>path:hover{stroke-width:8}</style>
<path fill="none" stroke="black" d="M338.89,-145.78C335.34,-137.29 330.97,-126.82 327,-117.32"/>
<polygon fill="#000000" stroke="black" points="330.14,-115.77 323.06,-107.89 323.68,-118.47 330.14,-115.77"/>
</g>
<!-- qrsalg_PeakDetectionAlg -->
<g id="node6" class="node">
<title>qrsalg_PeakDetectionAlg</title><style>.edge>path:hover{stroke-width:8}</style>
<ellipse fill="#4c1782" stroke="black" cx="339" cy="-314.99" rx="67.55" ry="19.6"/>
<text text-anchor="middle" x="339" y="-316.99" font-family="Helvetica,sans-Serif" font-size="10.00" fill="#ffffff">qrsalg.</text>
<text text-anchor="middle" x="339" y="-306.99" font-family="Helvetica,sans-Serif" font-size="10.00" fill="#ffffff">PeakDetectionAlg</text>
</g>
<!-- qrsalg_PeakDetectionAlg&#45;&gt;qrsalg -->
<g id="edge51" class="edge">
<title>qrsalg_PeakDetectionAlg&#45;&gt;qrsalg</title><style>.edge>path:hover{stroke-width:8}</style>
<path fill="none" stroke="black" d="M307.4,-297.23C293.52,-288.02 278.66,-275.2 271,-259.2 260.16,-236.55 280.81,-149.86 283,-144 286.77,-133.9 292.59,-123.65 298.3,-114.89"/>
<polygon fill="#000000" stroke="black" points="301.37,-116.6 304.12,-106.37 295.59,-112.65 301.37,-116.6"/>
</g>
<!-- qrsalg_PeakDetectionAlg&#45;&gt;qrsalg_ECGLAB_QRS_Mod -->
<g id="edge52" class="edge">
<title>qrsalg_PeakDetectionAlg&#45;&gt;qrsalg_ECGLAB_QRS_Mod</title><style>.edge>path:hover{stroke-width:8}</style>
<path fill="none" stroke="black" d="M377.99,-298.57C406.25,-287.38 444.69,-272.17 475.18,-260.11"/>
<polygon fill="#000000" stroke="black" points="476.76,-263.25 484.77,-256.31 474.19,-256.74 476.76,-263.25"/>
</g>
<!-- qrsalg_PeakDetectionAlg&#45;&gt;qrsalg_Manual -->
<g id="edge53" class="edge">
<title>qrsalg_PeakDetectionAlg&#45;&gt;qrsalg_Manual</title><style>.edge>path:hover{stroke-width:8}</style>
<path fill="none" stroke="black" d="M366.65,-296.67C379.01,-287.26 392.28,-274.43 399,-259.2 406.1,-243.09 405.6,-235.91 399,-219.6 393.91,-207.01 384.39,-195.71 374.81,-186.69"/>
<polygon fill="#000000" stroke="black" points="377,-183.96 367.19,-179.96 372.37,-189.21 377,-183.96"/>
</g>
<!-- qrsalg_pan_tompkins -->
<g id="node9" class="node">
<title>qrsalg_pan_tompkins</title><style>.edge>path:hover{stroke-width:8}</style>
<ellipse fill="#7a3db8" stroke="black" cx="335" cy="-239.4" rx="55.18" ry="19.6"/>
<text text-anchor="middle" x="335" y="-241.4" font-family="Helvetica,sans-Serif" font-size="10.00" fill="#ffffff">qrsalg.</text>
<text text-anchor="middle" x="335" y="-231.4" font-family="Helvetica,sans-Serif" font-size="10.00" fill="#ffffff">pan_tompkins</text>
</g>
<!-- qrsalg_PeakDetectionAlg&#45;&gt;qrsalg_pan_tompkins -->
<g id="edge54" class="edge">
<title>qrsalg_PeakDetectionAlg&#45;&gt;qrsalg_pan_tompkins</title><style>.edge>path:hover{stroke-width:8}</style>
<path fill="none" stroke="black" d="M331.98,-295.04C330.83,-287.23 330.12,-278 329.96,-269.37"/>
<polygon fill="#000000" stroke="black" points="333.46,-269.31 330.04,-259.29 326.46,-269.26 333.46,-269.31"/>
</g>
<!-- qrsalg_ecglab_original&#45;&gt;qrsalg -->
<g id="edge55" class="edge">
<title>qrsalg_ecglab_original&#45;&gt;qrsalg</title><style>.edge>path:hover{stroke-width:8}</style>
<path fill="none" stroke="black" d="M435.02,-147.22C408.85,-134.86 372.53,-117.7 346.92,-105.61"/>
<polygon fill="#000000" stroke="black" points="348.21,-102.34 337.67,-101.24 345.22,-108.67 348.21,-102.34"/>
</g>
<!-- qrsalg_ecglab_slow&#45;&gt;qrsalg -->
<g id="edge56" class="edge">
<title>qrsalg_ecglab_slow&#45;&gt;qrsalg</title><style>.edge>path:hover{stroke-width:8}</style>
<path fill="none" stroke="black" d="M557.67,-150.46C550.5,-148.22 543.04,-145.97 536,-144 471.19,-125.89 394.63,-108.29 351.05,-98.62"/>
<polygon fill="#000000" stroke="black" points="351.75,-95.19 341.23,-96.46 350.24,-102.03 351.75,-95.19"/>
</g>
<!-- qrsalg_ecglab_slow&#45;&gt;qrsalg_PeakDetectionAlg -->
<g id="edge57" class="edge">
<title>qrsalg_ecglab_slow&#45;&gt;qrsalg_PeakDetectionAlg</title><style>.edge>path:hover{stroke-width:8}</style>
<path fill="none" stroke="black" d="M557.03,-176.96C514.14,-190.89 448.99,-212.66 439,-219.6 420.18,-232.66 422.27,-243.07 406,-259.2 395.18,-269.92 382.42,-280.74 370.95,-289.91"/>
<polygon fill="#000000" stroke="black" points="368.57,-287.33 362.88,-296.26 372.9,-292.83 368.57,-287.33"/>
</g>
<!-- qrsalg_pan_tompkins&#45;&gt;qrsalg -->
<g id="edge58" class="edge">
<title>qrsalg_pan_tompkins&#45;&gt;qrsalg</title><style>.edge>path:hover{stroke-width:8}</style>
<path fill="none" stroke="black" d="M315.51,-220.61C306.16,-210.74 295.94,-197.64 291,-183.6 283.09,-161.13 291.83,-134.85 301.08,-116.04"/>
<polygon fill="#000000" stroke="black" points="304.31,-117.43 305.88,-106.95 298.12,-114.16 304.31,-117.43"/>
</g>
<!-- qrsalg_pan_tompkins&#45;&gt;qrsalg_PeakDetectionAlg -->
<g id="edge59" class="edge">
<title>qrsalg_pan_tompkins&#45;&gt;qrsalg_PeakDetectionAlg</title><style>.edge>path:hover{stroke-width:8}</style>
<path fill="none" stroke="black" d="M342.01,-259.29C343.16,-267.09 343.87,-276.32 344.04,-284.95"/>
<polygon fill="#000000" stroke="black" points="340.54,-285.01 343.96,-295.04 347.54,-285.07 340.54,-285.01"/>
</g>
<!-- scipy -->
<g id="node10" class="node">
<title>scipy</title><style>.edge>path:hover{stroke-width:8}</style>
<ellipse fill="#c418dd" stroke="black" cx="738" cy="-573.59" rx="27" ry="18"/>
<text text-anchor="middle" x="738" y="-570.59" font-family="Helvetica,sans-Serif" font-size="10.00" fill="#ffffff">scipy</text>
</g>
<!-- scipy&#45;&gt;qrsalg_ECGLAB_QRS_Mod -->
<g id="edge61" class="edge">
<title>scipy&#45;&gt;qrsalg_ECGLAB_QRS_Mod</title><style>.edge>path:hover{stroke-width:8}</style>
<path fill="none" stroke="black" d="M703,-548.28C702.67,-548.05 702.33,-547.82 702,-547.59 656.63,-516.48 522.79,-457.39 497,-408.79 491.35,-398.15 488.2,-386.63 486.91,-374.8"/>
<polygon fill="#000000" stroke="black" points="490.4,-374.54 486.23,-364.79 483.41,-375 490.4,-374.54"/>
</g>
<!-- scipy&#45;&gt;mlib -->
<g id="edge60" class="edge">
<title>scipy&#45;&gt;mlib</title><style>.edge>path:hover{stroke-width:8}</style>
<path fill="none" stroke="black" d="M729.57,-547.59C718.15,-513.77 697.87,-453.65 686.12,-418.81"/>
<polygon fill="#000000" stroke="black" points="689.31,-417.32 682.79,-408.97 682.67,-419.56 689.31,-417.32"/>
</g>
<!-- scipy_signal -->
<g id="node11" class="node">
<title>scipy_signal</title><style>.edge>path:hover{stroke-width:8}</style>
<ellipse fill="#b231c4" stroke="black" cx="822" cy="-573.59" rx="38.81" ry="18"/>
<text text-anchor="middle" x="822" y="-570.59" font-family="Helvetica,sans-Serif" font-size="10.00" fill="#ffffff">scipy.signal</text>
</g>
<!-- scipy_signal&#45;&gt;mlib -->
<g id="edge62" class="edge">
<title>scipy_signal&#45;&gt;mlib</title><style>.edge>path:hover{stroke-width:8}</style>
<path fill="none" stroke="black" d="M801.95,-547.6C774.3,-513.12 724.74,-451.32 697.07,-416.82"/>
<polygon fill="#000000" stroke="black" points="699.67,-414.46 690.68,-408.85 694.21,-418.84 699.67,-414.46"/>
</g>
<!-- HEP_Params&#45;&gt;hep -->
<g id="edge2" class="edge">
<title>HEP_Params&#45;&gt;hep</title><style>.edge>path:hover{stroke-width:8}</style>
<path fill="none" stroke="black" d="M134.19,-632.01C107.84,-599.05 53,-521.35 53,-445.79 53,-445.79 53,-445.79 53,-162.8 53,-89.37 145.69,-47.15 197.67,-29.26"/>
<polygon fill="#a13535" stroke="black" points="199.1,-32.47 207.49,-26 196.89,-25.83 199.1,-32.47"/>
</g>
<!-- HEP_Params&#45;&gt;HEP_lib -->
<g id="edge1" class="edge">
<title>HEP_Params&#45;&gt;HEP_lib</title><style>.edge>path:hover{stroke-width:8}</style>
<path fill="none" stroke="black" d="M146.61,-631.28C147.99,-622.14 150.7,-610.71 153.85,-600.51"/>
<polygon fill="#a13535" stroke="black" points="157.23,-601.45 157.11,-590.86 150.59,-599.21 157.23,-601.45"/>
</g>
<!-- HEP_lib&#45;&gt;hep -->
<g id="edge4" class="edge">
<title>HEP_lib&#45;&gt;hep</title><style>.edge>path:hover{stroke-width:8}</style>
<path fill="none" stroke="black" d="M158.75,-556.24C147.58,-532.53 129,-486.93 129,-445.79 129,-445.79 129,-445.79 129,-162.8 129,-110.03 175.41,-63.31 205.93,-38.29"/>
<polygon fill="#834520" stroke="black" points="208.41,-40.79 214.06,-31.83 204.05,-35.31 208.41,-40.79"/>
</g>
<!-- HEP_lib&#45;&gt;HEP_Params -->
<g id="edge3" class="edge">
<title>HEP_lib&#45;&gt;HEP_Params</title><style>.edge>path:hover{stroke-width:8}</style>
<path fill="none" stroke="black" d="M168.38,-591.78C167.02,-600.79 164.36,-612.01 161.27,-622.08"/>
<polygon fill="#834520" stroke="black" points="157.92,-621.05 158.07,-631.65 164.56,-623.27 157.92,-621.05"/>
</g>
<!-- HEP_lib&#45;&gt;mlib -->
<g id="edge5" class="edge">
<title>HEP_lib&#45;&gt;mlib</title><style>.edge>path:hover{stroke-width:8}</style>
<path fill="none" stroke="black" d="M185.59,-559.33C219.48,-539.41 292.58,-501.21 357,-473.79 392.18,-458.82 401.08,-454.76 438,-444.79 522.66,-421.94 548.55,-435.74 632,-408.79 634.71,-407.92 637.49,-406.88 640.27,-405.76"/>
<polygon fill="#834520" stroke="black" points="641.86,-408.89 649.68,-401.73 639.11,-402.45 641.86,-408.89"/>
</g>
<!-- abc -->
<g id="node15" class="node">
<title>abc</title><style>.edge>path:hover{stroke-width:8}</style>
<ellipse fill="#f3bc16" stroke="black" cx="964" cy="-793.39" rx="27" ry="18"/>
<text text-anchor="middle" x="964" y="-790.39" font-family="Helvetica,sans-Serif" font-size="10.00" fill="#000000">abc</text>
</g>
<!-- abc&#45;&gt;qrsalg_ECGLAB_QRS_Mod -->
<g id="edge8" class="edge">
<title>abc&#45;&gt;qrsalg_ECGLAB_QRS_Mod</title><style>.edge>path:hover{stroke-width:8}</style>
<path fill="none" stroke="black" d="M936.84,-791.64C800.52,-787.72 194.39,-768.76 116,-739.39 55.15,-716.6 0,-715.37 0,-650.39 0,-650.39 0,-650.39 0,-389.79 0,-291.46 106.19,-324.67 200,-295.2 206.44,-293.17 221.56,-290.03 241.94,-286.25"/>
<polygon fill="#f3bc16" stroke="black" points="242.8,-289.65 252,-284.41 241.54,-282.77 242.8,-289.65"/>
</g>
<!-- abc&#45;&gt;qrsalg_PeakDetectionAlg -->
<g id="edge9" class="edge">
<title>abc&#45;&gt;qrsalg_PeakDetectionAlg</title><style>.edge>path:hover{stroke-width:8}</style>
<path fill="none" stroke="black" d="M937.02,-792.61C846,-792.86 542.27,-789.59 298,-739.39 200.12,-719.28 143.26,-748.58 85,-667.39 56.62,-627.84 31.5,-603.32 115,-473.79 146.05,-425.63 197.48,-387.85 243.23,-361.35"/>
<polygon fill="#f3bc16" stroke="black" points="245.04,-364.35 252,-356.37 241.58,-358.27 245.04,-364.35"/>
</g>
<!-- functools -->
<g id="node18" class="node">
<title>functools</title><style>.edge>path:hover{stroke-width:8}</style>
<ellipse fill="#31dd18" stroke="black" cx="964" cy="-721.39" rx="32.19" ry="18"/>
<text text-anchor="middle" x="964" y="-718.39" font-family="Helvetica,sans-Serif" font-size="10.00" fill="#000000">functools</text>
</g>
<!-- abc&#45;&gt;functools -->
<g id="edge6" class="edge">
<title>abc&#45;&gt;functools</title><style>.edge>path:hover{stroke-width:8}</style>
<path fill="none" stroke="black" d="M964,-775.09C964,-767.37 964,-758.1 964,-749.5"/>
<polygon fill="#f3bc16" stroke="black" points="967.5,-749.5 964,-739.5 960.5,-749.5 967.5,-749.5"/>
</g>
<!-- typing -->
<g id="node23" class="node">
<title>typing</title><style>.edge>path:hover{stroke-width:8}</style>
<ellipse fill="#b83d6b" stroke="black" cx="1049" cy="-649.39" rx="27" ry="18"/>
<text text-anchor="middle" x="1049" y="-646.39" font-family="Helvetica,sans-Serif" font-size="10.00" fill="#ffffff">typing</text>
</g>
<!-- abc&#45;&gt;typing -->
<g id="edge10" class="edge">
<title>abc&#45;&gt;typing</title><style>.edge>path:hover{stroke-width:8}</style>
<path fill="none" stroke="black" d="M977.05,-777.22C985.57,-766.93 996.61,-752.81 1005,-739.39 1017.72,-719.05 1029.62,-694.51 1037.83,-676.35"/>
<polygon fill="#f3bc16" stroke="black" points="1041.12,-677.55 1041.99,-666.99 1034.73,-674.71 1041.12,-677.55"/>
</g>
<!-- abc&#45;&gt;mlib -->
<g id="edge7" class="edge">
<title>abc&#45;&gt;mlib</title><style>.edge>path:hover{stroke-width:8}</style>
<path fill="none" stroke="black" d="M983.48,-780.43C1012.81,-761.04 1066.84,-719.59 1085,-667.39 1102.43,-617.29 1099.07,-553.53 1059,-473.79 1050.96,-457.79 1046.93,-453 1031,-444.79 1016.97,-437.56 802.1,-408.41 714.12,-396.7"/>
<polygon fill="#f3bc16" stroke="black" points="714.42,-393.21 704.05,-395.36 713.5,-400.15 714.42,-393.21"/>
</g>
<!-- atexit -->
<g id="node16" class="node">
<title>atexit</title><style>.edge>path:hover{stroke-width:8}</style>
<ellipse fill="#cee722" stroke="black" cx="594" cy="-573.59" rx="27" ry="18"/>
<text text-anchor="middle" x="594" y="-570.59" font-family="Helvetica,sans-Serif" font-size="10.00" fill="#000000">atexit</text>
</g>
<!-- atexit&#45;&gt;matplotlib -->
<g id="edge11" class="edge">
<title>atexit&#45;&gt;matplotlib</title><style>.edge>path:hover{stroke-width:8}</style>
<path fill="none" stroke="black" d="M577.26,-559.09C573.55,-556.1 569.42,-552.76 565.06,-549.24"/>
<polygon fill="#cee722" stroke="black" points="566.98,-546.3 557,-542.74 562.58,-551.75 566.98,-546.3"/>
</g>
<!-- atexit&#45;&gt;mlib -->
<g id="edge12" class="edge">
<title>atexit&#45;&gt;mlib</title><style>.edge>path:hover{stroke-width:8}</style>
<path fill="none" stroke="black" d="M604.54,-556.68C611.4,-545.95 620.3,-531.33 627,-517.79 643.51,-484.47 658.69,-444.27 667.89,-418.39"/>
<polygon fill="#cee722" stroke="black" points="671.21,-419.48 671.23,-408.89 664.61,-417.16 671.21,-419.48"/>
</g>
<!-- bib -->
<g id="node17" class="node">
<title>bib</title><style>.edge>path:hover{stroke-width:8}</style>
<ellipse fill="#85b653" stroke="black" cx="533" cy="-390.79" rx="27" ry="18"/>
<text text-anchor="middle" x="533" y="-387.79" font-family="Helvetica,sans-Serif" font-size="10.00" fill="#000000">bib</text>
</g>
<!-- bib&#45;&gt;qrsalg_ECGLAB_QRS_Mod -->
<g id="edge13" class="edge">
<title>bib&#45;&gt;qrsalg_ECGLAB_QRS_Mod</title><style>.edge>path:hover{stroke-width:8}</style>
<path fill="none" stroke="black" d="M532.08,-372.66C532.07,-372.5 532.07,-372.35 532.06,-372.2"/>
<polygon fill="#85b653" stroke="black" points="535.69,-374.59 531.66,-364.79 528.7,-374.97 535.69,-374.59"/>
</g>
<!-- functools&#45;&gt;matplotlib -->
<g id="edge15" class="edge">
<title>functools&#45;&gt;matplotlib</title><style>.edge>path:hover{stroke-width:8}</style>
<path fill="none" stroke="black" d="M931.98,-718.34C864.8,-713.53 704.57,-699.43 574,-667.39 560,-663.96 460.28,-635.18 452,-623.39 434.53,-598.52 437.31,-581.82 448.93,-554.69"/>
<polygon fill="#31dd18" stroke="black" points="452.16,-556.06 453,-545.49 445.76,-553.22 452.16,-556.06"/>
</g>
<!-- functools&#45;&gt;matplotlib_pyplot -->
<g id="edge16" class="edge">
<title>functools&#45;&gt;matplotlib_pyplot</title><style>.edge>path:hover{stroke-width:8}</style>
<path fill="none" stroke="black" d="M932.05,-718.23C862.56,-712.44 693.77,-692.32 566.12,-627.59"/>
<polygon fill="#31dd18" stroke="black" points="567.49,-624.36 557,-622.85 564.26,-630.57 567.49,-624.36"/>
</g>
<!-- functools&#45;&gt;HEP_lib -->
<g id="edge14" class="edge">
<title>functools&#45;&gt;HEP_lib</title><style>.edge>path:hover{stroke-width:8}</style>
<path fill="none" stroke="black" d="M931.73,-719.02C852.64,-715.19 643.09,-702.31 472,-667.39 371.73,-646.93 257.2,-607.61 201.31,-587.36"/>
<polygon fill="#31dd18" stroke="black" points="202.49,-584.06 191.89,-583.92 200.09,-590.64 202.49,-584.06"/>
</g>
<!-- functools&#45;&gt;typing -->
<g id="edge18" class="edge">
<title>functools&#45;&gt;typing</title><style>.edge>path:hover{stroke-width:8}</style>
<path fill="none" stroke="black" d="M977.14,-704.86C988.95,-694.08 1006.33,-679.7 1021.12,-668.42"/>
<polygon fill="#31dd18" stroke="black" points="1023.55,-670.97 1029.47,-662.19 1019.36,-665.36 1023.55,-670.97"/>
</g>
<!-- functools&#45;&gt;mlib -->
<g id="edge17" class="edge">
<title>functools&#45;&gt;mlib</title><style>.edge>path:hover{stroke-width:8}</style>
<path fill="none" stroke="black" d="M968.71,-703.51C980.85,-655.99 1007.77,-519.71 941,-444.79 925.99,-427.95 783.43,-406.36 714.27,-396.77"/>
<polygon fill="#31dd18" stroke="black" points="714.61,-393.28 704.23,-395.39 713.66,-400.22 714.61,-393.28"/>
</g>
<!-- math -->
<g id="node19" class="node">
<title>math</title><style>.edge>path:hover{stroke-width:8}</style>
<ellipse fill="#53b691" stroke="black" cx="605" cy="-390.79" rx="27" ry="18"/>
<text text-anchor="middle" x="605" y="-387.79" font-family="Helvetica,sans-Serif" font-size="10.00" fill="#000000">math</text>
</g>
<!-- math&#45;&gt;qrsalg_ECGLAB_QRS_Mod -->
<g id="edge19" class="edge">
<title>math&#45;&gt;qrsalg_ECGLAB_QRS_Mod</title><style>.edge>path:hover{stroke-width:8}</style>
<path fill="none" stroke="black" d="M593.37,-374.45C593.09,-374.06 592.81,-373.67 592.54,-373.27"/>
<polygon fill="#53b691" stroke="black" points="595.4,-371.25 587,-364.79 589.54,-375.08 595.4,-371.25"/>
</g>
<!-- numpy -->
<g id="node20" class="node">
<title>numpy</title><style>.edge>path:hover{stroke-width:8}</style>
<ellipse fill="#0643f9" stroke="black" cx="334" cy="-721.39" rx="27" ry="18"/>
<text text-anchor="middle" x="334" y="-718.39" font-family="Helvetica,sans-Serif" font-size="10.00" fill="#ffffff">numpy</text>
</g>
<!-- numpy&#45;&gt;matplotlib -->
<g id="edge34" class="edge">
<title>numpy&#45;&gt;matplotlib</title><style>.edge>path:hover{stroke-width:8}</style>
<path fill="none" stroke="black" d="M337.22,-703.39C341.1,-685.01 348.54,-655.18 360,-631.39 379.76,-590.35 384.99,-577.9 419,-547.59 426.54,-540.87 435.22,-534.75 444.09,-529.31"/>
<polygon fill="#0643f9" stroke="black" points="446.14,-532.17 453,-524.1 442.6,-526.13 446.14,-532.17"/>
</g>
<!-- numpy&#45;&gt;matplotlib_pyplot -->
<g id="edge35" class="edge">
<title>numpy&#45;&gt;matplotlib_pyplot</title><style>.edge>path:hover{stroke-width:8}</style>
<path fill="none" stroke="black" d="M342.15,-704.17C352.51,-684.84 371.96,-652.53 396,-631.39 398.29,-629.38 420.27,-617.84 443.9,-605.68"/>
<polygon fill="#0643f9" stroke="black" points="445.7,-608.69 453,-601.01 442.51,-602.46 445.7,-608.69"/>
</g>
<!-- numpy&#45;&gt;qrsalg_ECGLAB_QRS_Mod -->
<g id="edge37" class="edge">
<title>numpy&#45;&gt;qrsalg_ECGLAB_QRS_Mod</title><style>.edge>path:hover{stroke-width:8}</style>
<path fill="none" stroke="black" d="M322.66,-705.05C298.26,-670.5 243,-583.12 243,-500.79 243,-500.79 243,-500.79 243,-389.79 243,-357.13 236.49,-337 246.75,-315.81"/>
<polygon fill="#0643f9" stroke="black" points="249.91,-317.34 252,-306.95 243.89,-313.76 249.91,-317.34"/>
</g>
<!-- numpy&#45;&gt;qrsalg_PeakDetectionAlg -->
<g id="edge38" class="edge">
<title>numpy&#45;&gt;qrsalg_PeakDetectionAlg</title><style>.edge>path:hover{stroke-width:8}</style>
<path fill="none" stroke="black" d="M334.21,-703.27C334.9,-647.45 337.11,-468.89 338.27,-374.99"/>
<polygon fill="#0643f9" stroke="black" points="341.77,-374.84 338.4,-364.79 334.77,-374.75 341.77,-374.84"/>
</g>
<!-- numpy&#45;&gt;qrsalg_ecglab_slow -->
<g id="edge39" class="edge">
<title>numpy&#45;&gt;qrsalg_ecglab_slow</title><style>.edge>path:hover{stroke-width:8}</style>
<path fill="none" stroke="black" d="M360.22,-716.25C383.71,-712.62 419.11,-707.31 450,-703.39 556.19,-689.93 861.75,-709.75 925,-623.39 1030.17,-479.79 953.91,-429.14 713,-219.6 698.23,-206.75 679.94,-196.32 662.2,-188.15"/>
<polygon fill="#0643f9" stroke="black" points="663.56,-184.92 653,-184.08 660.73,-191.32 663.56,-184.92"/>
</g>
<!-- numpy&#45;&gt;scipy -->
<g id="edge40" class="edge">
<title>numpy&#45;&gt;scipy</title><style>.edge>path:hover{stroke-width:8}</style>
<path fill="none" stroke="black" d="M359.82,-715.9C430.57,-703.24 626.74,-665.77 695.97,-626.84"/>
<polygon fill="#0643f9" stroke="black" points="697.82,-629.81 704.5,-621.59 694.15,-623.85 697.82,-629.81"/>
</g>
<!-- numpy&#45;&gt;HEP_Params -->
<g id="edge32" class="edge">
<title>numpy&#45;&gt;HEP_Params</title><style>.edge>path:hover{stroke-width:8}</style>
<path fill="none" stroke="black" d="M310.82,-711.67C280.34,-700.2 226.27,-679.85 188.85,-665.76"/>
<polygon fill="#0643f9" stroke="black" points="189.83,-662.4 179.24,-662.15 187.37,-668.95 189.83,-662.4"/>
</g>
<!-- numpy&#45;&gt;HEP_lib -->
<g id="edge33" class="edge">
<title>numpy&#45;&gt;HEP_lib</title><style>.edge>path:hover{stroke-width:8}</style>
<path fill="none" stroke="black" d="M307.24,-718.55C250.55,-714.04 121.4,-700.29 95,-667.39 74.18,-641.45 109.13,-610.89 137.23,-592.13"/>
<polygon fill="#0643f9" stroke="black" points="139.14,-595.06 145.66,-586.7 135.35,-589.17 139.14,-595.06"/>
</g>
<!-- numpy&#45;&gt;mlib -->
<g id="edge36" class="edge">
<title>numpy&#45;&gt;mlib</title><style>.edge>path:hover{stroke-width:8}</style>
<path fill="none" stroke="black" d="M360.22,-716.39C470.83,-699.46 894.04,-634.07 903,-623.39 975.71,-536.76 794.3,-443.16 713.48,-407.12"/>
<polygon fill="#0643f9" stroke="black" points="714.71,-403.84 704.15,-403.02 711.89,-410.25 714.71,-403.84"/>
</g>
<!-- os -->
<g id="node21" class="node">
<title>os</title><style>.edge>path:hover{stroke-width:8}</style>
<ellipse fill="#290cf3" stroke="black" cx="666" cy="-573.59" rx="27" ry="18"/>
<text text-anchor="middle" x="666" y="-570.59" font-family="Helvetica,sans-Serif" font-size="10.00" fill="#ffffff">os</text>
</g>
<!-- os&#45;&gt;matplotlib -->
<g id="edge41" class="edge">
<title>os&#45;&gt;matplotlib</title><style>.edge>path:hover{stroke-width:8}</style>
<path fill="none" stroke="black" d="M648.97,-559.48C643.15,-555.35 636.47,-550.98 630,-547.59 610.06,-537.14 587.24,-527.88 566.62,-520.42"/>
<polygon fill="#290cf3" stroke="black" points="567.59,-517.05 557,-517.01 565.25,-523.65 567.59,-517.05"/>
</g>
<!-- os&#45;&gt;mlib -->
<g id="edge42" class="edge">
<title>os&#45;&gt;mlib</title><style>.edge>path:hover{stroke-width:8}</style>
<path fill="none" stroke="black" d="M667.03,-555.58C668.94,-524.22 673.03,-457.03 675.33,-419.18"/>
<polygon fill="#290cf3" stroke="black" points="678.85,-419.08 675.96,-408.89 671.86,-418.66 678.85,-419.08"/>
</g>
<!-- time -->
<g id="node22" class="node">
<title>time</title><style>.edge>path:hover{stroke-width:8}</style>
<ellipse fill="#db2fb0" stroke="black" cx="486" cy="-721.39" rx="27" ry="18"/>
<text text-anchor="middle" x="486" y="-718.39" font-family="Helvetica,sans-Serif" font-size="10.00" fill="#ffffff">time</text>
</g>
<!-- time&#45;&gt;matplotlib_pyplot -->
<g id="edge63" class="edge">
<title>time&#45;&gt;matplotlib_pyplot</title><style>.edge>path:hover{stroke-width:8}</style>
<path fill="none" stroke="black" d="M488.22,-703.38C490.45,-686.24 494.03,-658.79 497.31,-633.63"/>
<polygon fill="#db2fb0" stroke="black" points="500.82,-633.76 498.64,-623.39 493.88,-632.85 500.82,-633.76"/>
</g>
<!-- time&#45;&gt;mlib -->
<g id="edge64" class="edge">
<title>time&#45;&gt;mlib</title><style>.edge>path:hover{stroke-width:8}</style>
<path fill="none" stroke="black" d="M474.78,-704.89C462.23,-686.5 442.66,-654.42 435,-623.39 419,-558.56 405.17,-524.18 449,-473.79 476.83,-441.8 585.4,-427.39 640.08,-408.67"/>
<polygon fill="#db2fb0" stroke="black" points="641.47,-411.88 649.63,-405.12 639.03,-405.32 641.47,-411.88"/>
</g>
<!-- typing&#45;&gt;functools -->
<g id="edge65" class="edge">
<title>typing&#45;&gt;functools</title><style>.edge>path:hover{stroke-width:8}</style>
<path fill="none" stroke="black" d="M1036.23,-665.59C1024.78,-676.07 1007.9,-690.08 993.26,-701.31"/>
<polygon fill="#b83d6b" stroke="black" points="990.84,-698.75 984.95,-707.55 995.05,-704.34 990.84,-698.75"/>
</g>
<!-- typing&#45;&gt;mlib -->
<g id="edge66" class="edge">
<title>typing&#45;&gt;mlib</title><style>.edge>path:hover{stroke-width:8}</style>
<path fill="none" stroke="black" d="M1052.25,-631.27C1058.59,-592.14 1067.89,-495.62 1017,-444.79 1006.31,-434.12 800.17,-407.22 714.18,-396.4"/>
<polygon fill="#b83d6b" stroke="black" points="714.43,-392.9 704.07,-395.13 713.56,-399.85 714.43,-392.9"/>
</g>
<!-- mlib&#45;&gt;qrsalg_ECGLAB_QRS_Mod -->
<g id="edge27" class="edge">
<title>mlib&#45;&gt;qrsalg_ECGLAB_QRS_Mod</title><style>.edge>path:hover{stroke-width:8}</style>
<path fill="none" stroke="black" d="M649.94,-376.98C644.15,-374.23 638.44,-371.49 633.94,-369.31"/>
<polygon fill="#0698ef" stroke="black" points="635.5,-366.18 625,-364.79 632.35,-372.43 635.5,-366.18"/>
</g>
<!-- mlib&#45;&gt;qrsalg_Manual -->
<g id="edge28" class="edge">
<title>mlib&#45;&gt;qrsalg_Manual</title><style>.edge>path:hover{stroke-width:8}</style>
<path fill="none" stroke="black" d="M675.75,-372.6C673.81,-353.34 668.92,-320.6 656.8,-288.53"/>
<polygon fill="#0698ef" stroke="black" points="659.98,-287.04 653,-279.07 653.48,-289.65 659.98,-287.04"/>
</g>
<!-- mlib&#45;&gt;qrsalg_PeakDetectionAlg -->
<g id="edge29" class="edge">
<title>mlib&#45;&gt;qrsalg_PeakDetectionAlg</title><style>.edge>path:hover{stroke-width:8}</style>
<path fill="none" stroke="black" d="M649.81,-375.94C646.88,-374.76 643.91,-373.68 641,-372.79 621.41,-366.86 613.46,-368.18 597.09,-366.26"/>
<polygon fill="#0698ef" stroke="black" points="597.4,-362.77 587,-364.79 596.39,-369.7 597.4,-362.77"/>
</g>
<!-- mlib&#45;&gt;qrsalg_ecglab_original -->
<g id="edge30" class="edge">
<title>mlib&#45;&gt;qrsalg_ecglab_original</title><style>.edge>path:hover{stroke-width:8}</style>
<path fill="none" stroke="black" d="M680.07,-372.66C684.77,-340.94 690.22,-272.25 659.22,-227.63"/>
<polygon fill="#0698ef" stroke="black" points="661.89,-225.36 653,-219.6 656.35,-229.65 661.89,-225.36"/>
</g>
<!-- mlib&#45;&gt;qrsalg_ecglab_slow -->
<g id="edge31" class="edge">
<title>mlib&#45;&gt;qrsalg_ecglab_slow</title><style>.edge>path:hover{stroke-width:8}</style>
<path fill="none" stroke="black" d="M688.13,-372.52C689.31,-370.01 690.32,-367.39 691,-364.79 707.29,-302.35 723.4,-275.4 691,-219.6 684.05,-207.63 673.4,-198.05 661.68,-190.47"/>
<polygon fill="#0698ef" stroke="black" points="663.38,-187.41 653,-185.3 659.8,-193.43 663.38,-187.41"/>
</g>
<!-- mlib&#45;&gt;hep -->
<g id="edge26" class="edge">
<title>mlib&#45;&gt;hep</title><style>.edge>path:hover{stroke-width:8}</style>
<path fill="none" stroke="black" d="M704.19,-380.78C753.12,-362.66 851,-316.84 851,-240.4 851,-240.4 851,-240.4 851,-162.8 851,-42.63 402.74,-22.85 269.14,-19.62"/>
<polygon fill="#0698ef" stroke="black" points="269.07,-16.12 259,-19.39 268.91,-23.12 269.07,-16.12"/>
</g>
<!-- mlib&#45;&gt;HEP_Params -->
<g id="edge24" class="edge">
<title>mlib&#45;&gt;HEP_Params</title><style>.edge>path:hover{stroke-width:8}</style>
<path fill="none" stroke="black" d="M649.74,-405.41C646.82,-406.64 643.87,-407.8 641,-408.79 573.78,-432.12 553.02,-423.91 485,-444.79 450.84,-455.28 441.35,-456.63 410,-473.79 360.69,-500.79 254.79,-595.47 206,-623.39 200.44,-626.57 194.4,-629.6 188.39,-632.39"/>
<polygon fill="#0698ef" stroke="black" points="186.75,-629.29 179.03,-636.54 189.59,-635.68 186.75,-629.29"/>
</g>
<!-- mlib&#45;&gt;HEP_lib -->
<g id="edge25" class="edge">
<title>mlib&#45;&gt;HEP_lib</title><style>.edge>path:hover{stroke-width:8}</style>
<path fill="none" stroke="black" d="M649.51,-408.95C566.45,-435.69 540.5,-421.99 456,-444.79 419.08,-454.76 410.18,-458.82 375,-473.79 312.08,-500.57 240.87,-537.64 200.04,-557.91"/>
<polygon fill="#0698ef" stroke="black" points="198.25,-554.89 190.82,-562.45 201.34,-561.17 198.25,-554.89"/>
</g>
</g>
</svg>
